<svg xmlns="http://www.w3.org/2000/svg" width="440" height="340" viewBox="0 0 220 170">
  <title>easy seat — original Still illustration</title>
  <path d="M40 147V86a70 70 0 0 1 140 0v61Z" fill="#e6e9dc"/>
  <circle cx="166" cy="39" r="17" fill="#efcfac" opacity=".65"/>
  <ellipse cx="111" cy="153" rx="88" ry="5" fill="#ccd4c3" opacity=".65"/>
  <path d="M104 124 Q64 123 61 140 Q65 150 113 149 L137 147 M116 124 Q153 123 159 140 Q151 156 105 147 L84 144" stroke="#3e6051" stroke-width="10" fill="none" stroke-linecap="round" stroke-linejoin="round"/>
  <path d="M110 77 L110 123" stroke="#bb7960" stroke-width="19" fill="none" stroke-linecap="round"/>
  <path d="M101 82 L85 109 L67 124 M119 82 L135 109 L152 124" stroke="#cd9678" stroke-width="7" fill="none" stroke-linecap="round" stroke-linejoin="round"/>
  <circle cx="110" cy="58" r="11" fill="#cd9678"/>
  <path d="M100 59 Q95 45 110 46 Q121 46 121 55 Q111 50 105 61Z" fill="#364d41"/>
  <circle cx="100" cy="50" r="5" fill="#364d41"/>
</svg>