<svg xmlns="http://www.w3.org/2000/svg" width="440" height="340" viewBox="0 0 220 170">
  <title>garland — original Still illustration</title>
  <path d="M40 147V86a70 70 0 0 1 140 0v61Z" fill="#e6e9dc"/>
  <circle cx="166" cy="39" r="17" fill="#efcfac" opacity=".65"/>
  <ellipse cx="111" cy="153" rx="88" ry="5" fill="#ccd4c3" opacity=".65"/>
  <path d="M100 120 L60 115 L70 147 L80 147 M100 120 L140 115 L130 147 L140 147" stroke="#3e6051" stroke-width="10" fill="none" stroke-linecap="round" stroke-linejoin="round"/>
  <path d="M105 80 L100 120" stroke="#bb7960" stroke-width="19" fill="none" stroke-linecap="round"/>
  <path d="M105 80 L90 115 L105 95 M105 80 L120 115 L105 95" stroke="#cd9678" stroke-width="7" fill="none" stroke-linecap="round" stroke-linejoin="round"/>
  <circle cx="110" cy="60" r="11" fill="#cd9678"/>
  <path d="M103 52 Q95 60 103 68 Q99 60 103 52 Z" fill="#364d41"/>
  <circle cx="96" cy="58" r="5" fill="#364d41"/>
</svg>