<svg xmlns="http://www.w3.org/2000/svg" width="440" height="340" viewBox="0 0 220 170">
  <title>garland — original Still illustration</title>
  <path d="M40 147V86a70 70 0 0 1 140 0v61Z" fill="#e6e9dc"/>
  <circle cx="166" cy="39" r="17" fill="#efcfac" opacity=".65"/>
  <ellipse cx="111" cy="153" rx="88" ry="5" fill="#ccd4c3" opacity=".65"/>
  <path d="M110 106 L54 102 L64 148 L42 148 M110 106 L166 102 L156 148 L178 148" stroke="#3e6051" stroke-width="10" fill="none" stroke-linecap="round" stroke-linejoin="round"/>
  <path d="M110 68 L110 106" stroke="#bb7960" stroke-width="19" fill="none" stroke-linecap="round"/>
  <path d="M100 68 L54 98 L108 76 M120 68 L166 98 L112 76 M108 76 L108 68 M112 76 L112 68" stroke="#cd9678" stroke-width="7" fill="none" stroke-linecap="round" stroke-linejoin="round"/>
  <circle cx="110" cy="58" r="11" fill="#cd9678"/>
  <path d="M100 59 Q95 45 110 46 Q121 46 121 55 Q111 50 105 61Z" fill="#364d41"/>
  <circle cx="110" cy="45" r="5" fill="#364d41"/>
</svg>