<svg xmlns="http://www.w3.org/2000/svg" width="440" height="340" viewBox="0 0 220 170">
  <title>locust — original Still illustration</title>
  <path d="M40 147V86a70 70 0 0 1 140 0v61Z" fill="#e6e9dc"/>
  <circle cx="166" cy="39" r="17" fill="#efcfac" opacity=".65"/>
  <ellipse cx="111" cy="153" rx="88" ry="5" fill="#ccd4c3" opacity=".65"/>
  <path d="M84 146 L52 140 L48 138 M84 148 L50 142 L46 140" stroke="#3e6051" stroke-width="10" fill="none" stroke-linecap="round" stroke-linejoin="round"/>
  <path d="M150 136 L84 146" stroke="#bb7960" stroke-width="19" fill="none" stroke-linecap="round"/>
  <path d="M148 140 L116 144 L96 146 M145 142 L112 146 L92 148" stroke="#cd9678" stroke-width="7" fill="none" stroke-linecap="round" stroke-linejoin="round"/>
  <circle cx="158" cy="126" r="11" fill="#cd9678"/>
  <path d="M148 127 Q143 113 158 114 Q169 114 169 123 Q159 118 153 129Z" fill="#364d41"/>
  <circle cx="147" cy="122" r="5" fill="#364d41"/>
</svg>