<svg xmlns="http://www.w3.org/2000/svg" width="440" height="340" viewBox="0 0 220 170">
  <title>warrior three — original Still illustration</title>
  <path d="M40 147V86a70 70 0 0 1 140 0v61Z" fill="#e6e9dc"/>
  <circle cx="166" cy="39" r="17" fill="#efcfac" opacity=".65"/>
  <ellipse cx="111" cy="153" rx="88" ry="5" fill="#ccd4c3" opacity=".65"/>
  <path d="M 120 90 L 121 118 L 120 143 L 128 146 M 120 90 L 90 90 L 59 89 L 52 88" stroke="#3e6051" stroke-width="10" fill="none" stroke-linecap="round" stroke-linejoin="round"/>
  <path d="M 156 90 L 120 90" stroke="#bb7960" stroke-width="19" fill="none" stroke-linecap="round"/>
  <path d="M 155 89 L 179 95 L 203 96 M 156 94 L 180 98 L 204 99" stroke="#cd9678" stroke-width="7" fill="none" stroke-linecap="round" stroke-linejoin="round"/>
  <circle cx="173" cy="80" r="11" fill="#cd9678"/>
  <path d="M163 81 Q158 67 173 68 Q184 68 184 77 Q174 72 168 83Z" fill="#364d41"/>
  <circle cx="163" cy="72" r="5" fill="#364d41"/>
</svg>