<svg xmlns="http://www.w3.org/2000/svg" width="440" height="340" viewBox="0 0 220 170">
  <title>wide legged forward fold — original Still illustration</title>
  <path d="M40 147V86a70 70 0 0 1 140 0v61Z" fill="#e6e9dc"/>
  <circle cx="166" cy="39" r="17" fill="#efcfac" opacity=".65"/>
  <ellipse cx="111" cy="153" rx="88" ry="5" fill="#ccd4c3" opacity=".65"/>
  <path d="M110 80 L92 114 L60 148 L52 148 M110 80 L128 114 L160 148 L168 148" stroke="#3e6051" stroke-width="10" fill="none" stroke-linecap="round" stroke-linejoin="round"/>
  <path d="M110 80 Q104 102 110 118" stroke="#bb7960" stroke-width="19" fill="none" stroke-linecap="round"/>
  <path d="M110 118 L98 134 L100 148 M110 118 L122 134 L120 148" stroke="#cd9678" stroke-width="7" fill="none" stroke-linecap="round" stroke-linejoin="round"/>
  <circle cx="110" cy="132" r="11" fill="#cd9678"/>
  <path d="M100 133 Q95 119 110 120 Q121 120 121 129 Q111 124 105 135Z" fill="#364d41"/>
  <circle cx="110" cy="119" r="5" fill="#364d41"/>
</svg>